<!DOCTYPE svg PUBLIC "-//W3C//DTD SVG 1.1//EN" "http://www.w3.org/Graphics/SVG/1.1/DTD/svg11.dtd">
<!-- Uploaded to: SVG Repo, www.svgrepo.com, Transformed by: SVG Repo Mixer Tools -->
<svg fill="#000000" version="1.1" id="Capa_1" xmlns="http://www.w3.org/2000/svg" xmlns:xlink="http://www.w3.org/1999/xlink" width="800px" height="800px" viewBox="0 0 380.312 380.312" xml:space="preserve" transform="rotate(90)">
<g id="SVGRepo_bgCarrier" stroke-width="0"/>
<g id="SVGRepo_tracerCarrier" stroke-linecap="round" stroke-linejoin="round"/>
<g id="SVGRepo_iconCarrier"> <g> <path d="M343.832,129.132c-4.896-28.152-13.464-55.08-25.092-81.396C312.62,34.272,300.992,1.224,283.244,0 c-3.061,0-6.12,2.448-6.732,5.508c-13.464,41.616-26.315,82.62-41.004,123.012c-2.447,6.12,5.508,11.628,11.017,8.568 c11.016-7.344,21.42-14.688,31.212-23.256c-6.732,37.944-3.061,77.111-2.448,115.057c0.612,37.332-14.076,183.6-84.456,126.07 c-34.272-28.764-22.032-88.127-20.808-127.906c1.224-37.333,6.732-75.889,0-113.221c-4.896-31.212-17.748-57.528-49.572-69.768 C93.523,33.66,72.104,67.32,64.147,87.516c-28.152,79.56-37.332,181.152-15.912,262.548c1.224,4.896,9.18,3.059,7.956-2.449 c-9.18-46.512-6.12-93.635-1.836-140.147C58.64,163.404,64.147,98.532,95.972,64.26c26.316-28.152,53.244,20.196,58.14,39.168 c5.508,21.42,4.896,44.676,4.896,66.096c-0.612,37.332-3.672,74.052-4.896,111.384c-1.224,36.107,5.508,65.484,34.272,89.352 c26.928,22.031,56.916,4.283,75.276-18.973c22.644-28.15,24.479-70.379,25.704-104.65c1.224-46.513-6.12-94.861,3.06-141.373 c12.24,11.628,25.704,21.42,40.393,30.6C338.936,140.148,344.444,134.64,343.832,129.132z M289.364,96.084 c-1.225-1.224-3.061-1.836-4.896-0.612c-1.836,0.612-3.06,1.224-3.672,2.448c-7.956,6.12-15.912,11.628-24.479,16.524 c11.628-31.824,22.031-64.26,31.823-96.696c8.568,10.404,22.032,43.452,24.48,49.572c6.731,15.3,11.016,31.824,14.688,47.736 c-9.18-6.732-17.747-13.464-25.703-21.42C296.708,89.964,291.2,92.412,289.364,96.084z"/> </g> </g>
</svg>