<?xml version="1.0" encoding="UTF-8" standalone="no"?>
<!-- Uploaded to: SVG Repo, www.svgrepo.com, Transformed by: SVG Repo Mixer Tools -->

<svg
   width="64"
   height="64"
   viewBox="0 0 15 15"
   version="1.1"
   fill="#000000"
   id="svg1"
   sodipodi:docname="callUs.svg"
   inkscape:version="1.4.2 (f4327f4, 2025-05-13)"
   xmlns:inkscape="http://www.inkscape.org/namespaces/inkscape"
   xmlns:sodipodi="http://sodipodi.sourceforge.net/DTD/sodipodi-0.dtd"
   xmlns="http://www.w3.org/2000/svg"
   xmlns:svg="http://www.w3.org/2000/svg">
  <defs
     id="defs2" />
  <sodipodi:namedview
     id="namedview1"
     pagecolor="#505050"
     bordercolor="#eeeeee"
     borderopacity="1"
     inkscape:showpageshadow="0"
     inkscape:pageopacity="0"
     inkscape:pagecheckerboard="0"
     inkscape:deskcolor="#505050"
     inkscape:zoom="2.3119078"
     inkscape:cx="33.305827"
     inkscape:cy="104.45918"
     inkscape:window-width="1920"
     inkscape:window-height="1017"
     inkscape:window-x="1912"
     inkscape:window-y="-8"
     inkscape:window-maximized="1"
     inkscape:current-layer="svg1" />
  <g
     id="SVGRepo_bgCarrier"
     stroke-width="0" />
  <g
     id="SVGRepo_tracerCarrier"
     stroke-linecap="round"
     stroke-linejoin="round" />
  <g
     id="SVGRepo_iconCarrier"
     transform="translate(5.9191827e-5,-3.0988882e-4)">
    <title
       id="title1">call [#000000]</title>
    <desc
       id="desc1">Created with Sketch.</desc>
    <defs
       id="defs1" />
    <g
       id="Page-1"
       stroke="none"
       stroke-width="1"
       fill="none"
       fill-rule="evenodd">
      <g
         id="Dribbble-Light-Preview"
         transform="translate(-103,-7321)"
         fill="#000000">
        <g
           id="icons"
           transform="translate(56,160)">
          <path
             d="m 61.730297,7173.996 c -0.463,1.407 -2.277,2.109 -3.573,1.992 -1.77,-0.16 -3.696,-1.099 -5.158,-2.133 -2.149,-1.52 -4.162,-3.871 -5.335,-6.366 -0.829,-1.763 -1.015,-3.931 0.218,-5.538 0.456,-0.594 0.949,-0.911 1.69,-0.948 1.028,-0.05 1.172,0.538 1.525,1.454 0.263,0.685 0.614,1.384 0.81,2.094 0.367,1.325 -0.916,1.38 -1.078,2.463 -0.101,0.683 0.727,1.599 1.101,2.086 0.733,0.954 1.614,1.777 2.608,2.403 0.569,0.359 1.488,1.006 2.14,0.649 1.004,-0.55 0.909,-2.243 2.313,-1.67 0.727,0.296 1.431,0.723 2.125,1.097 1.073,0.577 1.023,1.175 0.614,2.417 -0.306,0.928 0.306,-0.928 0,0"
             id="call-[#000000]" />
        </g>
      </g>
    </g>
  </g>
</svg>
