<!DOCTYPE svg PUBLIC "-//W3C//DTD SVG 1.1//EN" "http://www.w3.org/Graphics/SVG/1.1/DTD/svg11.dtd">
<!-- Uploaded to: SVG Repo, www.svgrepo.com, Transformed by: SVG Repo Mixer Tools -->
<svg width="64px" height="64px" viewBox="0 0 36 36" xmlns="http://www.w3.org/2000/svg" xmlns:xlink="http://www.w3.org/1999/xlink" aria-hidden="true" role="img" class="iconify iconify--twemoji" preserveAspectRatio="xMidYMid meet" fill="#000000">
<g id="SVGRepo_bgCarrier" stroke-width="0"/>
<g id="SVGRepo_tracerCarrier" stroke-linecap="round" stroke-linejoin="round"/>
<g id="SVGRepo_iconCarrier">
<path fill="#F4B400" d="M27.287 34.627c-.404 0-.806-.124-1.152-.371L18 28.422l-8.135 5.834a1.97 1.97 0 0 1-2.312-.008a1.971 1.971 0 0 1-.721-2.194l3.034-9.792l-8.062-5.681a1.98 1.98 0 0 1-.708-2.203a1.978 1.978 0 0 1 1.866-1.363L12.947 13l3.179-9.549a1.976 1.976 0 0 1 3.749 0L23 13l10.036.015a1.975 1.975 0 0 1 1.159 3.566l-8.062 5.681l3.034 9.792a1.97 1.97 0 0 1-.72 2.194a1.957 1.957 0 0 1-1.16.379z"/>
</g>
</svg>